/* XPM */
static char *f4eb383b9f0341b9f7b61c85374fad9f[] = {
/* columns rows colors chars-per-pixel */
"32 32 69 1 ",
"  c black",
". c #0E0E0E",
"X c #151515",
"o c gray10",
"O c #272727",
"+ c #282828",
"@ c #2C2C2C",
"# c #2F2F2F",
"$ c #414141",
"% c #555555",
"& c gray34",
"* c #5A5A5A",
"= c #5B5B5B",
"- c #6F6F6F",
"; c gray47",
": c gray48",
"> c gray49",
", c #929292",
"< c #B7B7B7",
"1 c gray75",
"2 c #C1C1C1",
"3 c gray76",
"4 c #C3C3C3",
"5 c #C6C6C6",
"6 c #C8C8C8",
"7 c gray79",
"8 c gray80",
"9 c gray81",
"0 c gray82",
"q c LightGray",
"w c gray83",
"e c gray84",
"r c #D8D8D8",
"t c gainsboro",
"y c #DDDDDD",
"u c gray87",
"i c #DFDFDF",
"p c gray88",
"a c #E1E1E1",
"s c #E2E2E2",
"d c gray89",
"f c #E4E4E4",
"g c gray90",
"h c #E6E6E6",
"j c #E7E7E7",
"k c gray91",
"l c #E9E9E9",
"z c #EAEAEA",
"x c gray92",
"c c #ECECEC",
"v c gray93",
"b c #EEEEEE",
"n c #EFEFEF",
"m c gray94",
"M c #F1F1F1",
"N c gray95",
"B c #F3F3F3",
"V c #F4F4F4",
"C c gray96",
"Z c #F6F6F6",
"A c gray97",
"S c #F8F8F8",
"D c #F9F9F9",
"F c gray98",
"G c #FBFBFB",
"H c gray99",
"J c #FDFDFD",
"K c #FEFEFE",
"L c gray100",
/* pixels */
"LLLLLLLLLLLLLLLLLLLLLLLLLLLLLLLL",
"LLLLLLLLLLLLVLNzfnSLLLLLLLLLLLLL",
"LLLLLLLLLSffVppfffpnNzSLLLLLLLLL",
"LLLLLLLLfiVNpfffffppfSizLLLLLLLL",
"LLLLLLVppVnpffffffffpfSppSLLLLLL",
"LLLLLnppVzpffffffffffffSpiVLLLLL",
"LLLLVppVzpffffpfppffffffSpiSLLLL",
"LLLLppVzpffffpinnpfffffpfSiiLLLL",
"LLLppVzpfffpzVLLLLVzppfffzNpzLLL",
"LLVpNzpffpfS70084347VzppfpnniSLL",
"LLpNnppizSLL    +== fLSnpppVfzLL",
"LSzNppnLLLLL o-$3LL=rLLLLNppViLL",
"LVnpVLLLLLLLwLL .SL3pLLLLLLVfVVL",
"LSVLLLLLLLLLLLL @LLLLLLLLLLLLSLL",
"LLLLLLLLLLLLLLL @zLLLLLLLLLLLLLL",
"LLLLLLLLLLLLS8z wwnLLLLLLLLLLLLL",
"LLLLLLLLLLLLV1i <4fLLLLLLLLLLLLL",
"LSSLLLLLLLLLL>, ;;LLLLLLLLLLLVLL",
"LfVznLLLLLLLLLL VLLLLLLLLLLNpVnL",
"LNpVfizLLLLLLLL LLLLLLLLLnipSiNL",
"LSppVzppfVLLLLL% pLLLLSzppzSfpLL",
"LLffpVnpfppNLLLL iLLNfpppzVppzLL",
"LLVpfpNnpfpfpzLXOpNppffpnNpfpSLL",
"LLLffppNNpfppfNLLnppffpNNpfpzLLL",
"LLLLipfpnnpVSNpnzzVNppVnpfppLLLL",
"LLLLNpffnSLppppnnfpzVSnppfpSLLLL",
"LLLLLNVVzpzVpfpnnpppSfNVziNLLLLL",
"LLLLLLNipfpzSppNNppLffppnLLLLLLL",
"LLLLLLLLfpfpzSinnpLppfpzLLLLLLLL",
"LLLLLLLLLVzpppVznVppizSLLLLLLLLL",
"LLLLLLLLLLLLVnzLLfnVLLLLLLLLLLLL",
"LLLLLLLLLLLLLLLLLLLLLLLLLLLLLLLL"
};
