/* XPM */
static char *_f84b666c5cf480dca7a3a8da47aff92[] = {
/* columns rows colors chars-per-pixel */
"64 64 97 2 ",
"   c black",
".  c #040404",
"X  c #060606",
"o  c #0C0C0C",
"O  c #0E0E0E",
"+  c gray6",
"@  c gray7",
"#  c #181818",
"$  c gray11",
"%  c gray12",
"&  c gray15",
"*  c #3C3C3C",
"=  c #3F3F3F",
"-  c gray27",
";  c gray29",
":  c #555555",
">  c gray34",
",  c #676767",
"<  c #6A6A6A",
"1  c #717171",
"2  c gray45",
"3  c gray46",
"4  c #767676",
"5  c #797979",
"6  c gray49",
"7  c gray50",
"8  c #838383",
"9  c gray52",
"0  c #898989",
"q  c gray55",
"w  c gray57",
"e  c #929292",
"r  c #939393",
"t  c #989898",
"y  c #9A9A9A",
"u  c gray61",
"i  c #9F9F9F",
"p  c gray63",
"a  c #A2A2A2",
"s  c #A4A4A4",
"d  c #A9A9A9",
"f  c #ACACAC",
"g  c gray69",
"h  c #B2B2B2",
"j  c #B6B6B6",
"k  c gray72",
"l  c #B9B9B9",
"z  c #BCBCBC",
"x  c gray",
"c  c #C0C0C0",
"v  c gray76",
"b  c gray77",
"n  c #C5C5C5",
"m  c gray78",
"M  c #C8C8C8",
"N  c gray79",
"B  c #CACACA",
"V  c gray80",
"C  c #CDCDCD",
"Z  c #D5D5D5",
"A  c #D8D8D8",
"S  c gray86",
"D  c #DDDDDD",
"F  c gray87",
"G  c #DFDFDF",
"H  c gray88",
"J  c #E1E1E1",
"K  c #E2E2E2",
"L  c gray89",
"P  c #E4E4E4",
"I  c gray90",
"U  c #E6E6E6",
"Y  c #E7E7E7",
"T  c gray91",
"R  c #E9E9E9",
"E  c #EAEAEA",
"W  c gray92",
"Q  c #ECECEC",
"!  c gray93",
"~  c #EEEEEE",
"^  c #EFEFEF",
"/  c gray94",
"(  c #F1F1F1",
")  c gray95",
"_  c #F3F3F3",
"`  c #F4F4F4",
"'  c gray96",
"]  c #F6F6F6",
"[  c gray97",
"{  c #F8F8F8",
"}  c #F9F9F9",
"|  c gray98",
" . c #FBFBFB",
".. c gray99",
"X. c #FDFDFD",
"o. c #FEFEFE",
"O. c gray100",
/* pixels */
"O.O.O.O.O.O.O.O.O.O.O.O.O.O.O.O.O.O.O.O.O.O.O.O.O.O.O.O.O.O.O.O.O.O.O.O.O.O.O.O.O.O.O.O.O.O.O.O.O.O.O.O.O.O.O.O.O.O.O.O.O.O.O.O.",
"O.O.O.O.O.O.O.O.O.O.O.O.O.O.O.O.O.O.O.O.O.O.O.O.O.O.O.O.O.O.O.O.O.O.O.O.O.O.O.O.O.O.O.O.O.O.O.O.O.O.O.O.O.O.O.O.O.O.O.O.O.O.O.O.",
"O.O.O.O.O.O.O.O.O.O.O.O.O.O.O.O.O.O.O.O.O.O.O.O.O.O.O.O.O.O./ ~ ~ ~ ] O.O.O.O.O.O.O.O.O.O.O.O.O.O.O.O.O.O.O.O.O.O.O.O.O.O.O.O.O.",
"O.O.O.O.O.O.O.O.O.O.O.O.O.O.O.O.O.O.O.O.O.O.O.] E E O.] P K K K K K K G E  .O./ ] O.O.O.O.O.O.O.O.O.O.O.O.O.O.O.O.O.O.O.O.O.O.O.",
"O.O.O.O.O.O.O.O.O.O.O.O.O.O.O.O.O.O.O.O. .E G G  .O.E G K P P P P P P P K K E O./ G ~  .O.O.O.O.O.O.O.O.O.O.O.O.O.O.O.O.O.O.O.O.",
"O.O.O.O.O.O.O.O.O.O.O.O.O.O.O.O.O.O.] P G K P O.] G K P P P P P P P P P P P K K  . .G G P  .O.O.O.O.O.O.O.O.O.O.O.O.O.O.O.O.O.O.",
"O.O.O.O.O.O.O.O.O.O.O.O.O.O.O.O. .K K K G ~ O.E G K P P P P P P P P P P P P K K K ] O.K K G E  .O.O.O.O.O.O.O.O.O.O.O.O.O.O.O.O.",
"O.O.O.O.O.O.O.O.O.O.O.O.O.O.O.E K K P G / O.P K K P P P P P P P P P P P P P P P K K ~ O.P K K K / O.O.O.O.O.O.O.O.O.O.O.O.O.O.O.",
"O.O.O.O.O.O.O.O.O.O.O.O.O. .K K K K K ] O.K K P P P P P P P P P P P P P P P P P P P K E O.P K P K P O.O.O.O.O.O.O.O.O.O.O.O.O.O.",
"O.O.O.O.O.O.O.O.O.O.O.O.] G K P K G ] O.K K P P P P P P P P P P P P P P P P P P P P P K E O.P P P K G O.O.O.O.O.O.O.O.O.O.O.O.O.",
"O.O.O.O.O.O.O.O.O.O.O./ G K P P K  .O.K K P P P P P P P P P P P P P P P P P P P P P P P K E O.K P P P G  .O.O.O.O.O.O.O.O.O.O.O.",
"O.O.O.O.O.O.O.O.O.O./ G P P K K ]  .G K K P P P P P P P P P P P P P P P P P P P P P P P P K E O.P K K K K ] O.O.O.O.O.O.O.O.O.O.",
"O.O.O.O.O.O.O.O.O.] K P P K K  . .G K P P P P P P P P P P P P P P P P P P P P P P P P P P P K ~ O.K K K K K  .O.O.O.O.O.O.O.O.O.",
"O.O.O.O.O.O.O.O.] K K P K K  . .K P P P P P P P P P P P P P P P P P P P P P P P P P P P P P K K ] O.K P P P K O.O.O.O.O.O.O.O.O.",
"O.O.O.O.O.O.O.O.K K P K K ]  .G K P P P P P P P P P P P K K K G K K K P P P P P P P P P P P P K G ]  .G K K P P O.O.O.O.O.O.O.O.",
"O.O.O.O.O.O.O.E K P K G ]  .G K P P P P P P P P P P P K K K E O.O./ K K K P P P P P P P P P P P K G O.] K P P K / O.O.O.O.O.O.O.",
"O.O.O.O.O.O.] G P P K / O.K K P P P P P P P P P P K K K / O.O.O.O.O.O.] P K K K P P P P P P P P P P K O./ K P P K O.O.O.O.O.O.O.",
"O.O.O.O.O.O.K K K K ~ O.K K P P P P P P P P K K K P  .O.O.O.O.O.O.O.O.O.O. .E K K P P K P P P P P P K K O.E K P K P O.O.O.O.O.O.",
"O.O.O.O.O.~ K K K ~ O.K K P P P P P P P K K K ~ O.O.O.O.O.O.O.O.O.O.O.O.O.O.O.O.] K K K P P P P P P K K P O.P K P K ] O.O.O.O.O.",
"O.O.O.O.O.K K K ~ O.K P P P P P P P K K K / O.O.1 8 6 6 6 6 6 8 8 6 6 6 8 6 6 3 S O.] P K K P K P P P P K E O.K K P P O.O.O.O.O.",
"O.O.O.O./ K K E O.K K P P P P K K G P ] O.O.O.O.                                d O.O.O. .E K K P P P P P K ~ O.K K G  .O.O.O.O.",
"O.O.O.O.P K E O.P K P P P K K K E O.O.O.O.O.O.O.                % ] / ~ ~ O.;   h O.O.O.O.O.O.~ K K K K P P K ]  .G K ~ O.O.O.O.",
"O.O.O. .K P O.P K P P P K K / O.O.O.O.O.O.O.O.O.            .   c O.O.O.O.O. .  h O.O.O.O.O.O.O.O.] P K K K P G  ./ G G O.O.O.O.",
"O.O.O.~ K O.~ K K K K P ] O.O.O.O.O.O.O.O.O.O.O.    & 0 C O.6 e 6 , m O.O.O.O.  h O.O.O.O.O.O.O.O.O.O. .E K K K K O.~ K ] O.O.O.",
"O.O.O.K O.~ G K K E  .O.O.O.O.O.O.O.O.O.O.O.O. .* ~ O.O.O.O.        u O.O.O.O.  a O.O.O.O.O.O.O.O.O.O.O.O.O.~ K K K O.P ~ O.O.O.",
"O.O.O. .~ G K / O.O.O.O.O.O.O.O.O.O.O.O.O.O.O.O.O.O.O.O.O.O.      c O.O.O.O.O.O.K O.O.O.O.O.O.O.O.O.O.O.O.O.O.O.] P K O.P O.O.O.",
"O.O.O.~ K ] O.O.O.O.O.O.O.O.O.O.O.O.O.O.O.O.O.O.O.O.O.O.O.O.      k O.O.O.O.O.O.O.O.O.O.O.O.O.O.O.O.O.O.O.O.O.O.O.O.] ]  .O.O.O.",
"O.O. .] O.O.O.O.O.O.O.O.O.O.O.O.O.O.O.O.O.O.O.O.O.O.O.O.O.O.      - B O.O.O.O.O.O.O.O.O.O.O.O.O.O.O.O.O.O.O.O.O.O.O.O.O.O.O.O.O.",
"O.O.O.O.O.O.O.O.O.O.O.O.O.O.O.O.O.O.O.O.O.O.O.O.O.O.O.O.O.O.        e O.O.O.O.O.O.O.O.O.O.O.O.O.O.O.O.O.O.O.O.O.O.O.O.O.O.O.O.O.",
"O.O.O.O.O.O.O.O.O.O.O.O.O.O.O.O.O.O.O.O.O.O.O.O.O.O.O.O.O.O.    8 f K O.O.O.O.O.O.O.O.O.O.O.O.O.O.O.O.O.O.O.O.O.O.O.O.O.O.O.O.O.",
"O.O.O.O.O.O.O.O.O.O.O.O.O.O.O.O.O.O.O.O.O.O.O.O.O.O.O.O.O.O.    m O.O.O.O.O.O.O.O.O.O.O.O.O.O.O.O.O.O.O.O.O.O.O.O.O.O.O.O.O.O.O.",
"O.O.O.O.O.O.O.O.O.O.O.O.O.O.O.O.O.O.O.O.O.O.O.O.O.S u a a k     3 d a a d O.O.O.O.O.O.O.O.O.O.O.O.O.O.O.O.O.O.O.O.O.O.O.O.O.O.O.",
"O.O.O.O.O.O.O.O.O.O.O.O.O.O.O.O.O.O.O.O.O.O.O.O.O.B < 1 1 9     : 5 1 1 6 O.O.O.O.O.O.O.O.O.O.O.O.O.O.O.O.O.O.O.O.O.O.O.O.O.O.O.",
"O.O.O.O.O.O.O.O.O.O.O.O.O.O.O.O.O.O.O.O.O.O.O.O.O.O.O.O.O.O.    c O.O.O.O.O.O.O.O.O.O.O.O.O.O.O.O.O.O.O.O.O.O.O.O.O.O.O.O.O.O.O.",
"O.O.O.O.O.O.O.O.O.O.O.O.O.O.O.O.O.O.O.O.O.O.O.O.O.O. . .O.O.    j O.O. .O.O.O.O.O.O.O.O.O.O.O.O.O.O.O.O.O.O.O.O.O.O.O.O.] O.O.O.",
"O.O.~ O./ E O.O.O.O.O.O.O.O.O.O.O.O.O.O.O.O.O.O.O.O.$ o + #     + @ + . O.O.O.O.O.O.O.O.O.O.O.O.O.O.O.O.O.O.O.O.O.O./ P O.O.O.O.",
"O.O.~ G O.] G E  .O.O.O.O.O.O.O.O.O.O.O.O.O.O.O.O.O.O.O.O.O.    B O.O.O.O.O.O.O.O.O.O.O.O.O.O.O.O.O.O.O.O.O.O.O.~ G P O.E ] O.O.",
"O.O.] K G  .] G G P ] O.O.O.O.O.O.O.O.O.O.O.O.O.O.O.O.O.O.O.    j O.O.O.O.O.O.O.O.O.O.O.O.O.O.O.O.O.O.O.O. .E G K E O.E G O.O.O.",
"O.O.O.G K K  . .G K K K ~ O.O.O.O.O.O.O.O.O.O.O.O.O.O.O.O.O.    k O.O.O.O.O.O.O.O.O.O.O.O.O.O.O.O.O.O.] K K K K ~ O.P K P O.O.O.",
"O.O.O.P K K G ] O.K K K K K E  .O.O.O.O.O.O.O.O.O.O.O.O.O.O.    m O.O.O.O.O.O.O.O.O.O.O.O.O.O.O.O.~ K G K P G / O.K K K ~ O.O.O.",
"O.O.O.~ K P K K ] O.K K K K K K P ] O.O.O.O.O.O.O.O.O.O.O.O.    - : c O.O.O.O.O.O.O.O.O.O.O. .E G K P K K G / O.K K P K ] O.O.O.",
"O.O.O. .K K P K K / O.K K P P P K K K / O.O.O.O.O.O.O.O.O.O.O.x     y O.O.O.O.O.O.O.O.O.] P G K P P P K G  .O.K P P K K O.O.O.O.",
"O.O.O.O.K K P P P K / O.P K P P P P P K K E  .O.O.O.O.O.O.O.O.k     u O.O.O.O.O.O.O.~ K K K P P P P K K  . .K K P P K E O.O.O.O.",
"O.O.O.O./ K P P P P K ~ O.P K P P P P P K K K P / O.O.O.O.O.O.B     u O.O.O.O. .E K K K P P P P P K K O.] G K P P P K  .O.O.O.O.",
"O.O.O.O.O.K K P P P P K E O.P K P P P P P P P K K K / O.O.O.        r O.O.] P K K K P P P P P P K K O./ G P P P P K P O.O.O.O.O.",
"O.O.O.O.O.~ K P P P P P K E O.E K P P P P P P P P K K K E O.8 e r q Z ] K K K P P P P P P P P P P O./ K P P P P P G  .O.O.O.O.O.",
"O.O.O.O.O.O.K K P P P P P K E O.E K K P P P P P P P P K G K O.O.O.O.K G K P P P P P P P P K K P O.E K P P P P K K E O.O.O.O.O.O.",
"O.O.O.O.O.O.] K P P P P P K K P O.E K P P P P P K K P / O.O./  . .O.O.~ G K K P P P P P P K E O.E K P P P P P K G O.O.O.O.O.O.O.",
"O.O.O.O.O.O.O.P K P P P P P P K P O.~ K K K G K ~ O.O.] E K G ] ] S E  .O./ K K K P P K K ~ O.P K P P P P P P K / O.O.O.O.O.O.O.",
"O.O.O.O.O.O.O.O.K K P P P P P P K K O.~ G ~  .O. .E K G K P G  . .K K K P ] O. .P K K K / O.K K K P P P P P K P O.O.O.O.O.O.O.O.",
"O.O.O.O.O.O.O.O. .G K P P K K P K G E O.O. .~ K K K K K P P G  . .G P P P K K / O.O.P ] O.K P P P P P P K K G O.O.O.O.O.O.O.O.O.",
"O.O.O.O.O.O.O.O.O.] K K K K G E ] O.O.~ O./ G K K P P P P K K ]  .K P P P P P K G ~ O.O.~ G K K P P P P K G O.O.O.O.O.O.O.O.O.O.",
"O.O.O.O.O.O.O.O.O.O.~ G P / O.O./ P K K K O.] G P P P P P P K  .] K K P P P P P K  .] P  .O./ K K K K K K  .O.O.O.O.O.O.O.O.O.O.",
"O.O.O.O.O.O.O.O.O.O.O.O.O.] P K K K P P K G O.] K K P P P P G  . .G P P P P K K O.] G K K P  .O. .P G K  .O.O.O.O.O.O.O.O.O.O.O.",
"O.O.O.O.O.O.O.O.O.O.O.O./ G K P P P P P K P K O. .G K K P P K ]  .K P P P K P O./ K P P P K K K / O.]  .O.O.O.O.O.O.O.O.O.O.O.O.",
"O.O.O.O.O.O.O.O.O.O.O.O.O.O.K K P P P P P P K G  . .K K P P K  .] K P P K P O.E K P P P P P K K G P O.O.O.O.O.O.O.O.O.O.O.O.O.O.",
"O.O.O.O.O.O.O.O.O.O.O.O.O.O.O.E G K P P P P P P G  .O.K K P K  . .G P K E O.E K P P P P P P K G / O.O.O.O.O.O.O.O.O.O.O.O.O.O.O.",
"O.O.O.O.O.O.O.O.O.O.O.O.O.O.O.O. .P K K P P P K K G ] O.K K G ]  .K G ~ O.P K K P P P K K K E O.O.O.O.O.O.O.O.O.O.O.O.O.O.O.O.O.",
"O.O.O.O.O.O.O.O.O.O.O.O.O.O.O.O.O.O.] P K K P K K P G / O.K G  .] G / O.K K P P K P K G P  .O.O.O.O.O.O.O.O.O.O.O.O.O.O.O.O.O.O.",
"O.O.O.O.O.O.O.O.O.O.O.O.O.O.O.O.O.O.O.O.] E K K K K K K / O.K ] ] / O.K K P K K K K E O.O.O.O.O.O.O.O.O.O.O.O.O.O.O.O.O.O.O.O.O.",
"O.O.O.O.O.O.O.O.O.O.O.O.O.O.O.O.O.O.O.O.O.O.O./ ~ K K K G E O. .O.O.G K K K P ~ ] O.O.O.O.O.O.O.O.O.O.O.O.O.O.O.O.O.O.O.O.O.O.O.",
"O.O.O.O.O.O.O.O.O.O.O.O.O.O.O.O.O.O.O.O.O.O.O.O.O.O.O. .] ~ ] O.O.~ / ]  .O.O.O.O.O.O.O.O.O.O.O.O.O.O.O.O.O.O.O.O.O.O.O.O.O.O.O.",
"O.O.O.O.O.O.O.O.O.O.O.O.O.O.O.O.O.O.O.O.O.O.O.O.O.O.O.O.O.O.O.O.O.O.O.O.O.O.O.O.O.O.O.O.O.O.O.O.O.O.O.O.O.O.O.O.O.O.O.O.O.O.O.O.",
"O.O.O.O.O.O.O.O.O.O.O.O.O.O.O.O.O.O.O.O.O.O.O.O.O.O.O.O.O.O.O.O.O.O.O.O.O.O.O.O.O.O.O.O.O.O.O.O.O.O.O.O.O.O.O.O.O.O.O.O.O.O.O.O."
};
